HIERARCHY
ROOT Hips
{
  OFFSET 54.9184 93.7137 16.046
  CHANNELS 6 Xposition Yposition Zposition Zrotation Xrotation Yrotation
  JOINT spine
  {
    OFFSET 0 7.4756 0.429885
    CHANNELS 3 Zrotation Xrotation Yrotation
    JOINT spine1
    {
      OFFSET 0 9.92301 0
      CHANNELS 3 Zrotation Xrotation Yrotation
      JOINT spine2
      {
        OFFSET 0 9.50804 0
        CHANNELS 3 Zrotation Xrotation Yrotation
        JOINT Neck
        {
          OFFSET 0 24.4111 1.16384
          CHANNELS 3 Zrotation Xrotation Yrotation
          JOINT Head
          {
            OFFSET 0 7.37523 0
            CHANNELS 3 Zrotation Xrotation Yrotation
            End Site
            {
              OFFSET 0 17.8522 -5.88741
            }
          }
        }
        JOINT RightShoulder
        {
          OFFSET -4.00356 10.2679 -0.557468
          CHANNELS 3 Zrotation Xrotation Yrotation
          JOINT RightArm
          {
            OFFSET 0 13.4673 0
            CHANNELS 3 Zrotation Xrotation Yrotation
            JOINT RightArmRoll
            {
              OFFSET 0 6.79858 0
              CHANNELS 3 Zrotation Xrotation Yrotation
              JOINT RightForeArm
              {
                OFFSET 0 19.8018 0
                CHANNELS 3 Zrotation Xrotation Yrotation
                JOINT RightForeArmRoll
                {
                  OFFSET 0 7.62905 0
                  CHANNELS 3 Zrotation Xrotation Yrotation
                  JOINT RightHand
                  {
                    OFFSET 0 15.3098 0
                    CHANNELS 3 Zrotation Xrotation Yrotation
                    End Site
                    {
                      OFFSET 0 0 0
                    }
                  }
                }
              }
            }
          }
        }
        JOINT LeftShoulder
        {
          OFFSET 4.00356 10.2679 -0.557468
          CHANNELS 3 Zrotation Xrotation Yrotation
          JOINT LeftArm
          {
            OFFSET 0 13.4673 0
            CHANNELS 3 Zrotation Xrotation Yrotation
            JOINT LeftArmRoll
            {
              OFFSET 0 6.79858 0
              CHANNELS 3 Zrotation Xrotation Yrotation
              JOINT LeftForeArm
              {
                OFFSET 0 19.8018 0
                CHANNELS 3 Zrotation Xrotation Yrotation
                JOINT LeftForeArmRoll
                {
                  OFFSET 0 7.62905 0
                  CHANNELS 3 Zrotation Xrotation Yrotation
                  JOINT LeftHand
                  {
                    OFFSET 0 15.3098 0
                    CHANNELS 3 Zrotation Xrotation Yrotation
                    End Site
                    {
                      OFFSET 0 0 0
                    }
                  }
                }
              }
            }
          }
        }
      }
    }
  }
  JOINT RightUpLeg
  {
    OFFSET -6.62609 -1.21505 -1.01927
    CHANNELS 3 Zrotation Xrotation Yrotation
    JOINT RightUpLegRoll
    {
      OFFSET 0 17.9517 0
      CHANNELS 3 Zrotation Xrotation Yrotation
      JOINT RightLeg
      {
        OFFSET 0 -22.2304 0
        CHANNELS 3 Zrotation Xrotation Yrotation
        JOINT RightLegRoll
        {
          OFFSET 0 22.3032 0
          CHANNELS 3 Zrotation Xrotation Yrotation
          JOINT RightFoot
          {
            OFFSET 0 18.5636 0
            CHANNELS 3 Zrotation Xrotation Yrotation
            JOINT RightToeBase
            {
              OFFSET 0 15.5183 0
              CHANNELS 3 Zrotation Xrotation Yrotation
              End Site
              {
                OFFSET 0.00657761 7.51539 -0.866263
              }
            }
          }
        }
      }
    }
  }
  JOINT LeftUpLeg
  {
    OFFSET 6.62609 -1.21505 -1.01927
    CHANNELS 3 Zrotation Xrotation Yrotation
    JOINT LeftUpLegRoll
    {
      OFFSET 0 17.9518 0
      CHANNELS 3 Zrotation Xrotation Yrotation
      JOINT LeftLeg
      {
        OFFSET 0 22.2303 0
        CHANNELS 3 Zrotation Xrotation Yrotation
        JOINT LeftLegRoll
        {
          OFFSET 0 22.5093 0
          CHANNELS 3 Zrotation Xrotation Yrotation
          JOINT LeftFoot
          {
            OFFSET 0 18.3575 0
            CHANNELS 3 Zrotation Xrotation Yrotation
            JOINT LeftToeBase
            {
              OFFSET 0 15.5183 0
              CHANNELS 3 Zrotation Xrotation Yrotation
              End Site
              {
                OFFSET -0.029478 7.51539 -0.866263
              }
            }
          }
        }
      }
    }
  }
}
MOTION
Frames: 6
Frame Time: 0.00208333
52.8821 93.6039 9.10377 -0.780858 3.80598 1.67442 0.415358 -1.28635 0.0938604 0.830587 1.43056 0.154846 0.82928 3.07553 0.141175 -10.5931 -2.08576 -2.06525 6.83171 6.73242 -3.30014 63.6821 -2.87589 -2.21175 104.85 20.3467 19.7916 8.30939e-006 -6.37623e-006 -9.77765e-006 3.79507 0.0741521 -1.20915 3.34668e-005 -8.30429e-007 -3.00794 8.02976 -4.95141 0.697659 -73.4043 -3.68521 3.37808 -96.1697 11.1183 -27.2407 -1.42061e-005 -1.87681e-007 1.34823e-005 0.918295 0.91171 0.830547 -9.86025e-006 -2.0165e-006 3.00844 -8.03027 -4.95135 -0.697645 179.188 7.64894 -0.844598 180 7.01567e-015 179.014 177.408 11.0576 179.757 1.6041e-006 -1.61639e-006 0.194376 -19.8466 69.4336 20.8061 8.12815 25.2331 -3.48418 -176.606 5.4404 1.2953 4.54188e-006 -4.6773e-006 -0.94006 -3.37302 -5.45041 -0.00477958 -1.61634e-007 2.66825e-006 -0.0482589 18.194 67.421 -19.0778 -8.13152 25.2329 3.48562 
52.8874 93.6056 9.11394 -0.776819 3.81922 1.6316 0.415373 -1.27282 0.0955555 0.829245 1.45764 0.157338 0.827919 3.10261 0.14368 -10.6156 -2.2972 -2.06585 6.83859 6.78879 -3.2871 63.6256 -2.89921 -2.22016 104.93 20.3774 19.7157 8.30939e-006 -6.37623e-006 -9.77765e-006 3.822 0.113398 -1.20913 3.34668e-005 -8.30429e-007 -3.00794 8.02976 -4.95141 0.697659 -73.3941 -3.71735 3.39205 -96.2154 11.0287 -27.1942 -1.42061e-005 -1.87681e-007 1.34823e-005 0.861124 1.12582 0.833725 -9.86025e-006 -2.0165e-006 3.00844 -8.03027 -4.95135 -0.697645 179.18 7.7367 -0.837011 180 7.01567e-015 179.014 177.408 11.1843 179.755 1.6041e-006 -1.61639e-006 0.195768 -19.8466 69.4336 20.8062 8.12815 25.2331 -3.48418 -176.619 5.46619 1.3 4.54188e-006 -4.6773e-006 -0.94006 -3.36631 -5.50161 -0.00312899 -1.61634e-007 2.66825e-006 -0.0482589 18.1703 67.3889 -19.0517 -8.13152 25.2329 3.48562 
52.8862 93.6022 9.12085 -0.772957 3.83193 1.58876 0.4154 -1.25927 0.0974665 0.827852 1.48474 0.160232 0.826503 3.12971 0.146589 -10.6357 -2.50754 -2.06626 6.8428 6.84483 -3.27387 63.5726 -2.92306 -2.22914 105.006 20.4097 19.641 8.30939e-006 -6.37623e-006 -9.77765e-006 3.84888 0.150728 -1.20889 3.34668e-005 -8.30429e-007 -3.00794 8.02976 -4.95141 0.697659 -73.3832 -3.74996 3.40619 -96.2606 10.939 -27.145 -1.42061e-005 -1.87681e-007 1.34823e-005 0.800984 1.34976 0.837075 -9.86025e-006 -2.0165e-006 3.00844 -8.03027 -4.95135 -0.697645 179.172 7.82245 -0.829714 180 7.01567e-015 179.014 177.407 11.3084 179.754 1.6041e-006 -1.61639e-006 0.197092 -19.8464 69.4334 20.8062 8.12815 25.2331 -3.48418 -176.632 5.49125 1.30437 4.54188e-006 -4.6773e-006 -0.94006 -3.35975 -5.55303 -0.0014875 -1.61634e-007 2.66825e-006 -0.0482589 18.1469 67.3571 -19.0258 -8.13152 25.2329 3.48562 
52.8947 93.6039 9.13077 -0.769214 3.84428 1.54592 0.415434 -1.24572 0.0995288 0.826423 1.51185 0.163409 0.825047 3.15682 0.149779 -10.6541 -2.71711 -2.06655 6.84514 6.90063 -3.26052 63.5218 -2.94727 -2.23852 105.079 20.4429 19.5669 8.30939e-006 -6.37623e-006 -9.77765e-006 3.87572 0.186717 -1.20852 3.34668e-005 -8.30429e-007 -3.00794 8.02976 -4.95141 0.697659 -73.3717 -3.78289 3.42044 -96.3056 10.8491 -27.0937 -1.42061e-005 -1.87681e-007 1.34823e-005 0.738755 1.58058 0.840549 -9.86025e-006 -2.0165e-006 3.00844 -8.03027 -4.95135 -0.697645 179.165 7.90679 -0.822621 180 7.01567e-015 179.013 177.406 11.4308 179.752 1.6041e-006 -1.61639e-006 0.198369 -19.8461 69.4331 20.806 8.12815 25.2331 -3.48418 -176.644 5.51578 1.30852 4.54188e-006 -4.6773e-006 -0.94006 -3.3533 -5.6046 0.000147693 -1.61634e-007 2.66825e-006 -0.0482589 18.1237 67.3256 -19.0002 -8.13152 25.2329 3.48562 
52.9068 93.6001 9.1466 -0.765531 3.85641 1.50306 0.415471 -1.23216 0.101677 0.824972 1.53897 0.166746 0.823567 3.18394 0.153132 -10.6715 -2.92623 -2.06678 6.84639 6.9563 -3.2471 63.4724 -2.97168 -2.24812 105.15 20.4767 19.4934 8.30939e-006 -6.37623e-006 -9.77765e-006 3.90255 0.221939 -1.20806 3.34668e-005 -8.30429e-007 -3.00794 8.02976 -4.95141 0.697659 -73.36 -3.81601 3.43477 -96.3502 10.7591 -27.0413 -1.42061e-005 -1.87681e-007 1.34823e-005 0.675319 1.81534 0.844103 -9.86025e-006 -2.0165e-006 3.00844 -8.03027 -4.95135 -0.697645 179.157 7.99033 -0.815644 180 7.01567e-015 179.013 177.406 11.5521 179.75 1.6041e-006 -1.61639e-006 0.199618 -19.8457 69.4326 20.8057 8.12815 25.2331 -3.48418 -176.656 5.54003 1.31255 4.54188e-006 -4.6773e-006 -0.94006 -3.3469 -5.65627 0.00177942 -1.61634e-007 2.66825e-006 -0.0482589 18.1007 67.2942 -18.9748 -8.13152 25.2329 3.48562 
52.9131 93.596 9.15461 -0.76185 3.86849 1.46021 0.415508 -1.21861 0.103848 0.823513 1.5661 0.170124 0.822079 3.21107 0.156524 -10.6888 -3.13525 -2.06702 6.84736 7.01193 -3.23365 63.4234 -2.99616 -2.25778 105.221 20.5107 19.4199 8.30939e-006 -6.37623e-006 -9.77765e-006 3.92937 0.25697 -1.20758 3.34668e-005 -8.30429e-007 -3.00794 8.02976 -4.95141 0.697659 -73.3483 -3.84917 3.44912 -96.3947 10.669 -26.9888 -1.42061e-005 -1.87681e-007 1.34823e-005 0.611558 2.05108 0.847687 -9.86025e-006 -2.0165e-006 3.00844 -8.03027 -4.95135 -0.697645 179.15 8.07366 -0.808695 180 7.01567e-015 179.013 177.405 11.6733 179.748 1.6041e-006 -1.61639e-006 0.200861 -19.8452 69.4321 20.8053 8.12815 25.2331 -3.48418 -176.668 5.5642 1.31654 4.54188e-006 -4.6773e-006 -0.94006 -3.34052 -5.70796 0.0034105 -1.61634e-007 2.66825e-006 -0.0482589 18.0778 67.2628 -18.9494 -8.13152 25.2329 3.48562 
